<svg id="Layer_1" xmlns="http://www.w3.org/2000/svg" viewBox="0 0 456.94 456.99"><defs><style type="text/css">.cls-1{fill:#f7931a;}.cls-2{fill:#fff;}</style></defs><title>Bitcoin_Perfect</title><path class="cls-1" d="M450.1,283.77c-30.52,122.41-154.5,196.9-276.92,166.38S-23.69,295.65,6.84,173.24,161.33-23.68,283.71,6.84,480.62,161.36,450.1,283.77Z"/><path class="cls-2" d="M329.18,195.94c4.55-30.4-18.6-46.75-50.25-57.65l10.27-41.19-25.07-6.25-10,40.1c-6.59-1.64-13.36-3.19-20.09-4.73L244.1,85.87,219,79.62l-10.27,41.17c-5.46-1.24-10.81-2.47-16-3.76l0-.13-34.57-8.63L151.55,135s18.6,4.26,18.21,4.53c10.15,2.53,12,9.25,11.68,14.58L153.31,267c-1.24,3.08-4.39,7.71-11.49,6,.25.36-18.22-4.55-18.22-4.55l-12.45,28.7,32.62,8.13c6.07,1.52,12,3.11,17.87,4.61l-10.38,41.66,25,6.25,10.27-41.21c6.84,1.86,13.48,3.57,20,5.18l-10.24,41L221.4,369l10.38-41.58c42.75,8.09,74.9,4.83,88.43-33.84,10.9-31.13-.54-49.09-23-60.8,16.38-3.78,28.72-14.55,32-36.81ZM271.9,276.27c-7.75,31.13-60.16,14.3-77.16,10.08l13.77-55.19C225.5,235.4,280,243.8,271.9,276.27Zm7.75-80.77c-7.07,28.32-50.7,13.93-64.85,10.4l12.48-50.05C241.43,159.37,287,166,279.65,195.49Z"/></svg> 