<?xml version="1.0" encoding="UTF-8" standalone="no"?>
<!-- Created with Inkscape (http://www.inkscape.org/) Bitcoin lightning logo © 2023 is licensed under CC BY-NC-SA 4.0 -->

<svg
   width="300mm"
   height="100mm"
   viewBox="0 0 300 100"
   version="1.1"
   id="svg1"
   xmlns="http://www.w3.org/2000/svg"
   xmlns:svg="http://www.w3.org/2000/svg">
  <defs
     id="defs1" />
  <g
     id="g1"
     transform="matrix(1.0407382,0,0,1.0407382,-57.249345,-5.0081835)">
    <path
       d="m 134.8125,51.71418 a 37.500193,37.500193 0 1 0 -8.74858,24.282478 l -10.43608,-2.898545 z"
       fill="#ff9000"
       id="path1"
       style="stroke-width:0.22059" />
    <path
       d="m 113.8521,46.578859 c 0.7478,-4.989731 -3.05296,-7.672098 -8.24784,-9.461078 l 1.69192,-6.758858 -4.11399,-1.025741 -1.64119,6.580181 c -1.08088,-0.269119 -2.190471,-0.522797 -3.295621,-0.774268 l 1.65221,-6.617682 -4.111782,-1.023534 -1.685303,6.756652 c -0.895593,-0.205148 -1.775744,-0.405884 -2.629425,-0.61765 v -0.02206 l -5.675765,-1.416184 -1.102946,4.39414 c 0,0 3.052957,0.699269 2.988985,0.743387 1.674274,0.399266 1.967658,1.502213 1.925746,2.384571 l -1.919128,7.700775 a 3.2889875,3.2889875 0 0 1 0.427943,0.136765 l -0.441178,-0.108089 -2.691191,10.786821 c -0.205147,0.505149 -0.721327,1.266183 -1.886039,0.977211 0.04191,0.05956 -2.991192,-0.745593 -2.991192,-0.745593 l -2.042658,4.709585 5.355911,1.323536 c 0.994858,0.249266 1.972069,0.509561 2.931632,0.756621 l -1.702949,6.838269 4.118403,1.034568 1.685303,-6.763272 c 1.1228,0.304413 2.205894,0.584562 3.277958,0.849269 l -1.678685,6.732388 4.113992,1.02574 1.702948,-6.822829 c 7.014761,1.323536 12.291261,0.791916 14.512601,-5.55444 1.78898,-5.10885 -0.0904,-8.055924 -3.78091,-9.977258 2.68678,-0.619856 4.71179,-2.388983 5.25224,-6.041943 z m -9.39932,13.182421 c -1.2728,5.10885 -9.875803,2.347071 -12.664052,1.654421 l 2.258835,-9.0574 c 2.790455,0.697062 11.733167,2.075746 10.405217,7.402979 z m 1.2728,-13.255215 c -1.1603,4.647818 -8.320651,2.285306 -10.643453,1.707361 l 2.049275,-8.214747 c 2.320597,0.577944 9.800808,1.658832 8.594178,6.507386 z"
       fill="#ffffff"
       id="path2"
       style="stroke-width:0.22059" />
    <path
       d="m 140.77503,48.392104 -21.17658,23.603062 11.91183,3.308843 -8.3824,18.30891 23.16188,-23.382467 -13.89713,-3.75002 z"
       fill="#ffba00"
       id="path3"
       style="stroke-width:0.22059" />
  </g>
  <g
     id="text5"
     transform="matrix(0.24497512,0,0,0.24497512,103.85352,58.407084)"
     aria-label="bitcoin"
     style="fill:#4e4e4e">
    <path
       d="m 77.48,2.6 q -13.52,0 -22.1,-5.72 -8.32,-5.72 -13,-15.08 H 41.34 L 34.06,0 H 4.68 l 41.86,-197.6 h 38.22 l -7.8,36.66 q -1.04,5.2 -2.86,12.22 -1.82,6.76 -3.9,13.78 -2.08,6.76 -3.9,11.96 h 1.04 q 6.76,-8.58 14.82,-15.08 8.06,-6.5 21.06,-6.5 10.4,0 19.5,5.2 9.1,4.94 14.82,16.38 5.72,11.18 5.72,29.9 0,17.42 -4.68,34.32 -4.68,16.9 -13.26,30.94 -8.58,13.78 -20.8,22.1 Q 92.56,2.6 77.48,2.6 Z m -6.5,-30.94 q 7.02,0 13,-5.46 6.24,-5.72 10.66,-14.82 4.68,-9.1 7.28,-20.28 2.6,-11.18 2.6,-22.36 0,-22.36 -16.64,-22.36 -9.36,0 -15.86,6.76 -6.5,6.76 -10.66,17.16 -4.16,10.14 -6.24,20.8 -1.82,10.66 -1.82,18.2 0,10.14 4.68,16.38 4.94,5.98 13,5.98 z m 135.97983,-131.3 q -8.06,0 -13.78,-3.38 -5.46,-3.64 -5.46,-12.22 0,-10.92 5.98,-16.64 6.24,-5.72 17.16,-5.72 7.54,0 13.26,3.38 5.72,3.38 5.72,11.96 0,10.14 -5.72,16.38 -5.46,6.24 -17.16,6.24 z m -55.38,159.64 30.16,-141.96 h 38.22 L 189.79983,0 Z"
       id="path4" />
    <path
       d="m 260.52,2.6 q -16.64,0 -26.78,-7.02 -10.14,-7.28 -10.14,-25.74 0,-6.5 1.56,-14.3 l 14.56,-68.38 h -19.24 l 3.64,-18.72 24.96,-10.66 16.64,-29.9 h 24.7 l -6.24,30.16 h 35.88 l -6.24,29.12 h -35.88 l -14.56,68.38 q -0.78,3.9 -0.78,6.76 0,4.94 3.12,7.28 3.12,2.08 8.06,2.08 5.2,0 9.88,-1.04 4.94,-1.3 10.66,-3.38 v 28.6 q -5.98,2.86 -14.56,4.68 -8.58,2.08 -19.24,2.08 z"
       id="path5" />
    <path
       d="m 369.70999,2.6 q -14.56,0 -26.78,-5.2 -11.96,-5.46 -18.98,-16.9 -7.02,-11.44 -7.02,-30.16 0,-19.24 4.94,-36.14 4.94,-17.16 14.56,-30.42 9.62,-13.26 23.66,-20.8 14.04,-7.54 31.98,-7.54 12.74,0 22.62,2.34 10.14,2.34 18.98,6.76 l -11.7,29.12 q -6.76,-2.86 -13.52,-4.94 -6.5,-2.34 -14.82,-2.34 -11.96,0 -20.54,9.1 -8.58,8.84 -13,22.88 -4.42,13.78 -4.42,28.86 0,11.96 5.72,18.2 5.72,6.24 16.12,6.24 9.62,0 17.68,-2.86 8.32,-3.12 17.16,-7.54 v 31.2 q -8.84,4.68 -19.24,7.54 -10.14,2.6 -23.4,2.6 z"
       id="path6" />
    <path
       d="m 482.29001,2.6 q -15.86,0 -28.34,-6.5 -12.22,-6.76 -19.24,-18.98 -6.76,-12.22 -6.76,-29.12 0,-18.72 4.68,-35.36 4.68,-16.9 14.04,-29.64 9.36,-13 23.4,-20.28 14.3,-7.28 33.28,-7.28 24.7,0 39.26,14.82 14.56,14.82 14.56,41.34 0,17.94 -4.42,34.32 -4.42,16.38 -13.78,29.12 -9.1,12.74 -23.4,20.28 -14.04,7.28 -33.28,7.28 z m 3.12,-31.2 q 10.66,0 17.94,-8.58 7.54,-8.58 11.44,-22.1 3.9,-13.78 3.9,-29.12 0,-10.66 -4.16,-17.68 -3.9,-7.28 -14.04,-7.28 -8.58,0 -15.08,5.98 -6.5,5.72 -10.66,15.08 -4.16,9.36 -6.24,20.02 -2.08,10.66 -2.08,20.28 0,23.4 18.98,23.4 z m 135.45976,-131.04 q -8.06,0 -13.78,-3.38 -5.46,-3.64 -5.46,-12.22 0,-10.92 5.98,-16.64 6.24,-5.72 17.16,-5.72 7.54,0 13.26,3.38 5.72,3.38 5.72,11.96 0,10.14 -5.72,16.38 -5.46,6.24 -17.16,6.24 z m -55.38,159.64 30.16,-141.96 h 38.22 L 603.70977,0 Z M 634.91,0 665.07,-141.96 h 29.12 l -2.6,26.26 h 1.04 q 8.32,-12.74 18.98,-20.8 10.92,-8.06 25.74,-8.06 18.46,0 27.56,11.18 9.1,10.92 9.1,29.64 0,9.36 -2.86,22.88 L 754.25,0 h -38.22 l 17.42,-82.94 q 2.08,-9.1 2.08,-15.08 0,-15.6 -13.78,-15.6 -8.58,0 -15.6,7.54 -7.02,7.28 -12.22,19.76 -4.94,12.48 -8.32,27.56 L 673.13,0 Z"
       id="path7" />
  </g>
  <g
     id="text12"
     transform="matrix(0.24497512,0,0,0.24497512,107.78278,81.385854)"
     aria-label="LIGHTNING ACCEPTED HERE"
     style="fill:#4e4e4e">
    <path
       d="m 1.482,0 8.607,-40.698 h 8.493 l -7.125,33.573 h 14.25 L 24.225,0 Z"
       id="path8" />
    <path
       d="m 30.497002,0 1.026,-4.902 5.187,-2.28 5.586,-26.334 -4.218,-2.28 1.026,-4.902 h 18.012 l -1.026,4.902 -5.301,2.28 -5.586,26.334 4.332,2.28 -1.026,4.902 z m 42.521966,0.57 q -7.068,0 -11.058,-4.047 -3.99,-4.047 -3.99,-11.799 0,-5.187 1.482,-9.861 1.539,-4.731 4.56,-8.322 3.021,-3.648 7.467,-5.757 4.446,-2.109 10.317,-2.109 6.099,0 11.4,2.736 l -3.192,7.011 q -2.052,-1.14 -4.104,-1.767 -2.052,-0.684 -4.503,-0.684 -3.762,0 -6.555,1.596 -2.736,1.596 -4.56,4.275 -1.824,2.622 -2.736,5.814 -0.912,3.192 -0.912,6.384 0,4.503 1.938,6.897 1.938,2.394 6.27,2.394 1.425,0 2.451,-0.171 1.083,-0.228 2.28,-0.513 l 1.824,-8.322 h -7.41 l 1.539,-7.182 h 15.675 l -4.503,21.204 q -2.793,0.912 -5.928,1.596 -3.078,0.627 -7.752,0.627 z M 95.933,0 104.54,-40.698 h 8.493 l -3.363,15.96 h 13.11 l 3.363,-15.96 h 8.493 L 126.029,0 h -8.493 l 3.705,-17.556 h -13.11 L 104.426,0 Z m 46.39804,0 7.068,-33.516 h -9.804 l 1.539,-7.182 h 28.101 l -1.539,7.182 h -9.804 L 150.82404,0 Z m 24.90901,0 8.607,-40.698 h 9.918 l 9.462,29.982 h 0.228 q 0.228,-1.197 0.513,-3.078 0.285,-1.938 0.627,-3.99 0.399,-2.052 0.741,-3.648 l 4.104,-19.266 h 7.638 L 200.47105,0 h -9.519 l -9.918,-30.78 h -0.285 q -0.057,0.342 -0.228,1.653 -0.171,1.254 -0.456,3.021 -0.228,1.767 -0.57,3.648 -0.285,1.824 -0.57,3.306 L 174.87805,0 Z m 40.46995,0 1.026,-4.902 5.187,-2.28 5.586,-26.334 -4.218,-2.28 1.026,-4.902 h 18.012 l -1.026,4.902 -5.301,2.28 -5.586,26.334 4.332,2.28 L 225.722,0 Z m 25.53597,0 8.607,-40.698 h 9.918 l 9.462,29.982 h 0.228 q 0.228,-1.197 0.513,-3.078 0.285,-1.938 0.627,-3.99 0.399,-2.052 0.741,-3.648 l 4.104,-19.266 h 7.638 L 266.47697,0 h -9.519 l -9.918,-30.78 h -0.285 q -0.057,0.342 -0.228,1.653 -0.171,1.254 -0.456,3.021 -0.228,1.767 -0.57,3.648 -0.285,1.824 -0.57,3.306 L 240.88397,0 Z m 60.59095,0.57 q -7.068,0 -11.058,-4.047 -3.99,-4.047 -3.99,-11.799 0,-5.187 1.482,-9.861 1.539,-4.731 4.56,-8.322 3.021,-3.648 7.467,-5.757 4.446,-2.109 10.317,-2.109 6.099,0 11.4,2.736 l -3.192,7.011 q -2.052,-1.14 -4.104,-1.767 -2.052,-0.684 -4.503,-0.684 -3.762,0 -6.555,1.596 -2.736,1.596 -4.56,4.275 -1.824,2.622 -2.736,5.814 -0.912,3.192 -0.912,6.384 0,4.503 1.938,6.897 1.938,2.394 6.27,2.394 1.425,0 2.451,-0.171 1.083,-0.228 2.28,-0.513 l 1.824,-8.322 h -7.41 l 1.539,-7.182 h 15.675 l -4.503,21.204 q -2.793,0.912 -5.928,1.596 -3.078,0.627 -7.752,0.627 z"
       id="path9" />
    <path
       d="m 319.82101,0 22.116,-40.698 h 5.358 L 352.31101,0 h -5.016 l -1.539,-12.654 h -13.737 L 325.40701,0 Z m 14.649,-17.214 h 10.773 l -0.912,-8.55 q -0.228,-2.166 -0.456,-4.788 -0.171,-2.622 -0.228,-4.617 h -0.171 q -0.912,2.166 -2.109,4.674 -1.197,2.451 -2.508,4.959 z"
       id="path10" />
    <path
       d="m 375.85199,0.57 q -6.783,0 -10.659,-4.161 -3.819,-4.161 -3.819,-11.4 0,-3.648 0.855,-7.41 0.855,-3.762 2.565,-7.125 1.767,-3.363 4.389,-5.985 2.679,-2.679 6.213,-4.218 3.534,-1.539 7.98,-1.539 5.7,0 9.918,2.28 l -2.052,4.218 q -1.539,-0.798 -3.477,-1.368 -1.881,-0.627 -4.389,-0.627 -4.275,0 -7.41,1.938 -3.078,1.881 -5.13,5.073 -2.052,3.135 -3.078,6.954 -0.969,3.819 -0.969,7.695 0,5.187 2.622,8.208 2.679,2.964 7.353,2.964 2.337,0 4.56,-0.456 2.28,-0.456 4.446,-1.197 v 4.446 q -2.223,0.798 -4.503,1.254 -2.223,0.456 -5.415,0.456 z"
       id="path11" />
    <path
       d="m 409.48199,0.57 q -6.783,0 -10.659,-4.161 -3.819,-4.161 -3.819,-11.4 0,-3.648 0.855,-7.41 0.855,-3.762 2.565,-7.125 1.767,-3.363 4.389,-5.985 2.679,-2.679 6.213,-4.218 3.534,-1.539 7.98,-1.539 5.7,0 9.918,2.28 l -2.052,4.218 q -1.539,-0.798 -3.477,-1.368 -1.881,-0.627 -4.389,-0.627 -4.275,0 -7.41,1.938 -3.078,1.881 -5.13,5.073 -2.052,3.135 -3.078,6.954 -0.969,3.819 -0.969,7.695 0,5.187 2.622,8.208 2.679,2.964 7.353,2.964 2.337,0 4.56,-0.456 2.28,-0.456 4.446,-1.197 v 4.446 q -2.223,0.798 -4.503,1.254 -2.223,0.456 -5.415,0.456 z m 17.784,-0.57 8.607,-40.698 h 20.634 l -0.969,4.503 h -15.561 l -2.679,12.711 h 14.535 l -0.855,4.446 h -14.592 l -3.135,14.535 h 15.618 L 447.89999,0 Z"
       id="path12" />
    <path
       d="m 458.78701,0 8.607,-40.698 h 9.177 q 6.612,0 9.405,2.964 2.793,2.907 2.793,7.638 0,6.897 -4.56,10.545 -4.56,3.648 -13.338,3.648 h -3.648 L 463.86001,0 Z m 12.882,-20.178 q 5.472,0 8.664,-2.337 3.249,-2.394 3.249,-7.41 0,-3.363 -1.938,-4.845 -1.881,-1.539 -5.757,-1.539 h -4.332 l -3.42,16.131 z"
       id="path13" />
    <path
       d="m 496.80401,0 7.638,-36.195 h -11.172 l 0.969,-4.503 h 27.474 l -0.912,4.503 h -11.172 L 501.93401,0 Z m 22.79997,0 8.607,-40.698 h 20.634 l -0.969,4.503 h -15.561 l -2.679,12.711 h 14.535 l -0.855,4.446 h -14.592 l -3.135,14.535 h 15.618 L 540.23798,0 Z m 29.868,0 8.607,-40.698 h 9.633 q 7.353,0 11.514,3.99 4.161,3.99 4.161,12.255 0,7.068 -2.793,12.597 -2.736,5.529 -8.094,8.721 Q 567.19898,0 559.50398,0 Z m 10.317,-4.389 q 5.928,0 9.975,-2.679 4.047,-2.679 6.156,-7.239 2.109,-4.56 2.109,-10.203 0,-6.27 -3.021,-9.006 -2.964,-2.793 -7.923,-2.793 h -4.845 l -6.783,31.92 z m 43.719,4.389 8.607,-40.698 h 5.073 l -3.648,17.214 h 17.898 l 3.648,-17.214 h 5.016 L 631.49498,0 h -5.016 l 3.99,-18.981 h -17.898 L 608.58098,0 Z m 39.27302,0 8.607,-40.698 h 20.634 l -0.969,4.503 h -15.561 l -2.679,12.711 h 14.535 l -0.855,4.446 h -14.592 l -3.135,14.535 h 15.618 L 663.415,0 Z m 29.868,0 8.607,-40.698 h 8.949 q 12.54,0 12.54,10.317 0,4.389 -2.337,7.638 -2.28,3.249 -7.809,4.788 L 699.325,0 h -5.586 l -5.814,-16.815 h -6.669 L 677.722,0 Z m 13.965,-21.147 q 5.7,0 8.265,-2.451 2.622,-2.508 2.622,-6.441 0,-3.477 -1.938,-4.845 -1.938,-1.368 -5.814,-1.368 h -4.332 l -3.249,15.105 z M 705.88,0 l 8.607,-40.698 h 20.634 l -0.969,4.503 h -15.561 l -2.679,12.711 h 14.535 l -0.855,4.446 H 715 l -3.135,14.535 h 15.618 L 726.514,0 Z"
       id="path14" />
  </g>
</svg>
